<svg width="1024" height="1024" viewBox="0 0 1024 1024" fill="none" xmlns="http://www.w3.org/2000/svg">
<rect width="1024" height="1024" fill="url(#paint0_linear_48_38)"/>
<path d="M281.201 188.924C277.58 182.634 278.063 167.005 289.397 160.955C300.732 154.905 312.611 162.523 316.232 168.813L390.099 289.29C393.719 295.58 387.466 305.583 376.132 311.633C364.797 317.683 352.674 317.489 349.054 311.199L281.201 188.924Z" fill="#048142"/>
<path d="M739.202 183.734C742.876 177.35 742.292 167.005 730.958 160.955C719.624 154.905 707.197 160.483 703.522 166.867L629.06 291.369C625.385 297.753 631.595 307.832 642.929 313.882C654.264 319.932 666.431 319.662 670.105 313.278L739.202 183.734Z" fill="#048142"/>
<path fill-rule="evenodd" clip-rule="evenodd" d="M511.835 503.239H718.502C758.818 503.239 792.623 469.708 779.7 431.519C745.07 329.182 638.246 254.633 511.835 254.633C385.423 254.633 278.6 329.182 243.97 431.519C231.047 469.708 265.078 503.239 305.395 503.239H511.835ZM407.31 419.519C429.256 419.519 447.047 401.728 447.047 379.782C447.047 357.836 429.256 340.045 407.31 340.045C385.364 340.045 367.573 357.836 367.573 379.782C367.573 401.728 385.364 419.519 407.31 419.519ZM656.097 379.782C656.097 401.728 638.306 419.519 616.36 419.519C594.414 419.519 576.623 401.728 576.623 379.782C576.623 357.836 594.414 340.045 616.36 340.045C638.306 340.045 656.097 357.836 656.097 379.782Z" fill="#048142"/>
<path d="M549.086 837.883C528.142 858.186 494.858 858.186 473.914 837.883L258.625 629.181C223.792 595.413 247.697 536.409 296.211 536.409H726.789C775.303 536.409 799.208 595.413 764.375 629.181L549.086 837.883Z" fill="#048142"/>
<defs>
<linearGradient id="paint0_linear_48_38" x1="54.6796" y1="955.029" x2="989.204" y2="30.4466" gradientUnits="userSpaceOnUse">
<stop stop-color="#C0C9FF"/>
<stop offset="1" stop-color="#EBFFBC"/>
</linearGradient>
</defs>
</svg>
